<mxfile host="app.diagrams.net" modified="2023-05-14T06:00:04.590Z" agent="Mozilla/5.0 (Windows NT 10.0; Win64; x64) AppleWebKit/537.36 (KHTML, like Gecko) Chrome/113.0.0.0 Safari/537.36" etag="TTNyQOWHNTuxZCcRjnT_" version="21.3.0" type="device">
  <diagram id="C5RBs43oDa-KdzZeNtuy" name="Page-1">
    <mxGraphModel dx="2501" dy="699" grid="1" gridSize="10" guides="1" tooltips="1" connect="1" arrows="1" fold="1" page="1" pageScale="1" pageWidth="827" pageHeight="1169" math="0" shadow="0">
      <root>
        <mxCell id="WIyWlLk6GJQsqaUBKTNV-0" />
        <mxCell id="WIyWlLk6GJQsqaUBKTNV-1" parent="WIyWlLk6GJQsqaUBKTNV-0" />
        <mxCell id="cJhJGrbu-B-ctOWpSyJ_-0" value="Input" style="swimlane;fontStyle=1;align=center;verticalAlign=top;childLayout=stackLayout;horizontal=1;startSize=26;horizontalStack=0;resizeParent=1;resizeParentMax=0;resizeLast=0;collapsible=1;marginBottom=0;" parent="WIyWlLk6GJQsqaUBKTNV-1" vertex="1">
          <mxGeometry x="-820" y="90" width="260" height="110" as="geometry" />
        </mxCell>
        <mxCell id="cJhJGrbu-B-ctOWpSyJ_-1" value="+ image : 2D array" style="text;strokeColor=none;fillColor=none;align=left;verticalAlign=top;spacingLeft=4;spacingRight=4;overflow=hidden;rotatable=0;points=[[0,0.5],[1,0.5]];portConstraint=eastwest;" parent="cJhJGrbu-B-ctOWpSyJ_-0" vertex="1">
          <mxGeometry y="26" width="260" height="26" as="geometry" />
        </mxCell>
        <mxCell id="cJhJGrbu-B-ctOWpSyJ_-2" value="" style="line;strokeWidth=1;fillColor=none;align=left;verticalAlign=middle;spacingTop=-1;spacingLeft=3;spacingRight=3;rotatable=0;labelPosition=right;points=[];portConstraint=eastwest;strokeColor=inherit;" parent="cJhJGrbu-B-ctOWpSyJ_-0" vertex="1">
          <mxGeometry y="52" width="260" height="8" as="geometry" />
        </mxCell>
        <mxCell id="cJhJGrbu-B-ctOWpSyJ_-3" value="+ Input_Image(string) : 2D array&#xa;+ Preprocessing(2D array) : 2D array" style="text;strokeColor=none;fillColor=none;align=left;verticalAlign=top;spacingLeft=4;spacingRight=4;overflow=hidden;rotatable=0;points=[[0,0.5],[1,0.5]];portConstraint=eastwest;" parent="cJhJGrbu-B-ctOWpSyJ_-0" vertex="1">
          <mxGeometry y="60" width="260" height="50" as="geometry" />
        </mxCell>
        <mxCell id="cJhJGrbu-B-ctOWpSyJ_-4" value="ObjectDetection" style="swimlane;fontStyle=1;align=center;verticalAlign=top;childLayout=stackLayout;horizontal=1;startSize=26;horizontalStack=0;resizeParent=1;resizeParentMax=0;resizeLast=0;collapsible=1;marginBottom=0;" parent="WIyWlLk6GJQsqaUBKTNV-1" vertex="1">
          <mxGeometry x="-460" y="90" width="220" height="110" as="geometry">
            <mxRectangle x="-493" y="160" width="130" height="30" as="alternateBounds" />
          </mxGeometry>
        </mxCell>
        <mxCell id="cJhJGrbu-B-ctOWpSyJ_-5" value="+ Detected : 2D array" style="text;strokeColor=none;fillColor=none;align=left;verticalAlign=top;spacingLeft=4;spacingRight=4;overflow=hidden;rotatable=0;points=[[0,0.5],[1,0.5]];portConstraint=eastwest;" parent="cJhJGrbu-B-ctOWpSyJ_-4" vertex="1">
          <mxGeometry y="26" width="220" height="26" as="geometry" />
        </mxCell>
        <mxCell id="cJhJGrbu-B-ctOWpSyJ_-6" value="" style="line;strokeWidth=1;fillColor=none;align=left;verticalAlign=middle;spacingTop=-1;spacingLeft=3;spacingRight=3;rotatable=0;labelPosition=right;points=[];portConstraint=eastwest;strokeColor=inherit;" parent="cJhJGrbu-B-ctOWpSyJ_-4" vertex="1">
          <mxGeometry y="52" width="220" height="8" as="geometry" />
        </mxCell>
        <mxCell id="cJhJGrbu-B-ctOWpSyJ_-7" value="+ Detecting(2D array) : 2D array&#xa;+ Inference(2D array) : 3D array" style="text;strokeColor=none;fillColor=none;align=left;verticalAlign=top;spacingLeft=4;spacingRight=4;overflow=hidden;rotatable=0;points=[[0,0.5],[1,0.5]];portConstraint=eastwest;" parent="cJhJGrbu-B-ctOWpSyJ_-4" vertex="1">
          <mxGeometry y="60" width="220" height="50" as="geometry" />
        </mxCell>
        <mxCell id="cJhJGrbu-B-ctOWpSyJ_-8" value="Validation" style="swimlane;fontStyle=1;align=center;verticalAlign=top;childLayout=stackLayout;horizontal=1;startSize=26;horizontalStack=0;resizeParent=1;resizeParentMax=0;resizeLast=0;collapsible=1;marginBottom=0;" parent="WIyWlLk6GJQsqaUBKTNV-1" vertex="1">
          <mxGeometry x="-120" y="90" width="300" height="110" as="geometry" />
        </mxCell>
        <mxCell id="cJhJGrbu-B-ctOWpSyJ_-9" value="+ isValidate : bool" style="text;strokeColor=none;fillColor=none;align=left;verticalAlign=top;spacingLeft=4;spacingRight=4;overflow=hidden;rotatable=0;points=[[0,0.5],[1,0.5]];portConstraint=eastwest;" parent="cJhJGrbu-B-ctOWpSyJ_-8" vertex="1">
          <mxGeometry y="26" width="300" height="26" as="geometry" />
        </mxCell>
        <mxCell id="cJhJGrbu-B-ctOWpSyJ_-10" value="" style="line;strokeWidth=1;fillColor=none;align=left;verticalAlign=middle;spacingTop=-1;spacingLeft=3;spacingRight=3;rotatable=0;labelPosition=right;points=[];portConstraint=eastwest;strokeColor=inherit;" parent="cJhJGrbu-B-ctOWpSyJ_-8" vertex="1">
          <mxGeometry y="52" width="300" height="8" as="geometry" />
        </mxCell>
        <mxCell id="cJhJGrbu-B-ctOWpSyJ_-11" value="+ Validating(3D array, 3D array) : bool" style="text;strokeColor=none;fillColor=none;align=left;verticalAlign=top;spacingLeft=4;spacingRight=4;overflow=hidden;rotatable=0;points=[[0,0.5],[1,0.5]];portConstraint=eastwest;" parent="cJhJGrbu-B-ctOWpSyJ_-8" vertex="1">
          <mxGeometry y="60" width="300" height="50" as="geometry" />
        </mxCell>
        <mxCell id="R8WdpjA0Jo8XCXI6cHWc-8" value="Manual" style="swimlane;fontStyle=1;align=center;verticalAlign=top;childLayout=stackLayout;horizontal=1;startSize=26;horizontalStack=0;resizeParent=1;resizeParentMax=0;resizeLast=0;collapsible=1;marginBottom=0;whiteSpace=wrap;html=1;" parent="WIyWlLk6GJQsqaUBKTNV-1" vertex="1">
          <mxGeometry x="375" y="410" width="290" height="110" as="geometry" />
        </mxCell>
        <mxCell id="R8WdpjA0Jo8XCXI6cHWc-9" value="+ Generated_Manual : 2D array" style="text;strokeColor=none;fillColor=none;align=left;verticalAlign=top;spacingLeft=4;spacingRight=4;overflow=hidden;rotatable=0;points=[[0,0.5],[1,0.5]];portConstraint=eastwest;whiteSpace=wrap;html=1;" parent="R8WdpjA0Jo8XCXI6cHWc-8" vertex="1">
          <mxGeometry y="26" width="290" height="26" as="geometry" />
        </mxCell>
        <mxCell id="R8WdpjA0Jo8XCXI6cHWc-10" value="" style="line;strokeWidth=1;fillColor=none;align=left;verticalAlign=middle;spacingTop=-1;spacingLeft=3;spacingRight=3;rotatable=0;labelPosition=right;points=[];portConstraint=eastwest;strokeColor=inherit;" parent="R8WdpjA0Jo8XCXI6cHWc-8" vertex="1">
          <mxGeometry y="52" width="290" height="8" as="geometry" />
        </mxCell>
        <mxCell id="R8WdpjA0Jo8XCXI6cHWc-11" value="+ Generating_Manual(Instruction array) : 2D array&amp;nbsp;" style="text;strokeColor=none;fillColor=none;align=left;verticalAlign=top;spacingLeft=4;spacingRight=4;overflow=hidden;rotatable=0;points=[[0,0.5],[1,0.5]];portConstraint=eastwest;whiteSpace=wrap;html=1;" parent="R8WdpjA0Jo8XCXI6cHWc-8" vertex="1">
          <mxGeometry y="60" width="290" height="50" as="geometry" />
        </mxCell>
        <mxCell id="R8WdpjA0Jo8XCXI6cHWc-20" value="" style="endArrow=open;endFill=1;endSize=12;html=1;rounded=0;exitX=0.5;exitY=1;exitDx=0;exitDy=0;entryX=0.5;entryY=0;entryDx=0;entryDy=0;" parent="WIyWlLk6GJQsqaUBKTNV-1" source="R8WdpjA0Jo8XCXI6cHWc-0" target="R8WdpjA0Jo8XCXI6cHWc-8" edge="1">
          <mxGeometry width="160" relative="1" as="geometry">
            <mxPoint x="-190" y="280" as="sourcePoint" />
            <mxPoint x="-30" y="280" as="targetPoint" />
          </mxGeometry>
        </mxCell>
        <mxCell id="R8WdpjA0Jo8XCXI6cHWc-22" value="callback" style="html=1;verticalAlign=bottom;endArrow=block;edgeStyle=elbowEdgeStyle;elbow=vertical;curved=0;rounded=0;exitX=1;exitY=0.5;exitDx=0;exitDy=0;entryX=0;entryY=0.5;entryDx=0;entryDy=0;" parent="WIyWlLk6GJQsqaUBKTNV-1" source="cJhJGrbu-B-ctOWpSyJ_-5" target="cJhJGrbu-B-ctOWpSyJ_-9" edge="1">
          <mxGeometry relative="1" as="geometry">
            <mxPoint x="-190" y="150" as="sourcePoint" />
          </mxGeometry>
        </mxCell>
        <mxCell id="R8WdpjA0Jo8XCXI6cHWc-25" value="return" style="html=1;verticalAlign=bottom;endArrow=open;dashed=1;endSize=8;edgeStyle=elbowEdgeStyle;elbow=vertical;curved=0;rounded=0;exitX=0;exitY=0.5;exitDx=0;exitDy=0;entryX=1;entryY=0.5;entryDx=0;entryDy=0;" parent="WIyWlLk6GJQsqaUBKTNV-1" source="cJhJGrbu-B-ctOWpSyJ_-11" target="cJhJGrbu-B-ctOWpSyJ_-7" edge="1">
          <mxGeometry relative="1" as="geometry">
            <mxPoint x="-210" y="291" as="targetPoint" />
            <mxPoint x="-130" y="260" as="sourcePoint" />
            <Array as="points" />
          </mxGeometry>
        </mxCell>
        <mxCell id="R8WdpjA0Jo8XCXI6cHWc-26" value="" style="endArrow=open;endFill=1;endSize=12;html=1;rounded=0;exitX=1;exitY=0.5;exitDx=0;exitDy=0;entryX=0;entryY=0.5;entryDx=0;entryDy=0;" parent="WIyWlLk6GJQsqaUBKTNV-1" source="cJhJGrbu-B-ctOWpSyJ_-1" target="cJhJGrbu-B-ctOWpSyJ_-5" edge="1">
          <mxGeometry width="160" relative="1" as="geometry">
            <mxPoint x="-550" y="280" as="sourcePoint" />
            <mxPoint x="-390" y="280" as="targetPoint" />
          </mxGeometry>
        </mxCell>
        <mxCell id="R8WdpjA0Jo8XCXI6cHWc-31" value="" style="group" parent="WIyWlLk6GJQsqaUBKTNV-1" vertex="1" connectable="0">
          <mxGeometry x="360" y="81" width="591" height="128" as="geometry" />
        </mxCell>
        <mxCell id="R8WdpjA0Jo8XCXI6cHWc-0" value="InstructionSet" style="swimlane;fontStyle=1;align=center;verticalAlign=top;childLayout=stackLayout;horizontal=1;startSize=26;horizontalStack=0;resizeParent=1;resizeParentMax=0;resizeLast=0;collapsible=1;marginBottom=0;whiteSpace=wrap;html=1;" parent="R8WdpjA0Jo8XCXI6cHWc-31" vertex="1">
          <mxGeometry width="320" height="126" as="geometry" />
        </mxCell>
        <mxCell id="R8WdpjA0Jo8XCXI6cHWc-1" value="+ Generated_Inst : Instruction&lt;br&gt;+ Generated_Set : Instruction array" style="text;strokeColor=none;fillColor=none;align=left;verticalAlign=top;spacingLeft=4;spacingRight=4;overflow=hidden;rotatable=0;points=[[0,0.5],[1,0.5]];portConstraint=eastwest;whiteSpace=wrap;html=1;" parent="R8WdpjA0Jo8XCXI6cHWc-0" vertex="1">
          <mxGeometry y="26" width="320" height="44" as="geometry" />
        </mxCell>
        <mxCell id="R8WdpjA0Jo8XCXI6cHWc-2" value="" style="line;strokeWidth=1;fillColor=none;align=left;verticalAlign=middle;spacingTop=-1;spacingLeft=3;spacingRight=3;rotatable=0;labelPosition=right;points=[];portConstraint=eastwest;strokeColor=inherit;" parent="R8WdpjA0Jo8XCXI6cHWc-0" vertex="1">
          <mxGeometry y="70" width="320" height="8" as="geometry" />
        </mxCell>
        <mxCell id="R8WdpjA0Jo8XCXI6cHWc-3" value="+ Generating_Inst(bool) : Instruction&lt;br&gt;+ Generating_Set(Instruction array) : Instruction array" style="text;strokeColor=none;fillColor=none;align=left;verticalAlign=top;spacingLeft=4;spacingRight=4;overflow=hidden;rotatable=0;points=[[0,0.5],[1,0.5]];portConstraint=eastwest;whiteSpace=wrap;html=1;" parent="R8WdpjA0Jo8XCXI6cHWc-0" vertex="1">
          <mxGeometry y="78" width="320" height="48" as="geometry" />
        </mxCell>
        <mxCell id="R8WdpjA0Jo8XCXI6cHWc-4" value="Instruction" style="swimlane;fontStyle=0;childLayout=stackLayout;horizontal=1;startSize=26;fillColor=none;horizontalStack=0;resizeParent=1;resizeParentMax=0;resizeLast=0;collapsible=1;marginBottom=0;whiteSpace=wrap;html=1;" parent="R8WdpjA0Jo8XCXI6cHWc-31" vertex="1">
          <mxGeometry x="451" y="9" width="140" height="78" as="geometry" />
        </mxCell>
        <mxCell id="R8WdpjA0Jo8XCXI6cHWc-5" value="+ picture : 2D array" style="text;strokeColor=none;fillColor=none;align=left;verticalAlign=top;spacingLeft=4;spacingRight=4;overflow=hidden;rotatable=0;points=[[0,0.5],[1,0.5]];portConstraint=eastwest;whiteSpace=wrap;html=1;" parent="R8WdpjA0Jo8XCXI6cHWc-4" vertex="1">
          <mxGeometry y="26" width="140" height="26" as="geometry" />
        </mxCell>
        <mxCell id="R8WdpjA0Jo8XCXI6cHWc-6" value="+ explanation : string" style="text;strokeColor=none;fillColor=none;align=left;verticalAlign=top;spacingLeft=4;spacingRight=4;overflow=hidden;rotatable=0;points=[[0,0.5],[1,0.5]];portConstraint=eastwest;whiteSpace=wrap;html=1;" parent="R8WdpjA0Jo8XCXI6cHWc-4" vertex="1">
          <mxGeometry y="52" width="140" height="26" as="geometry" />
        </mxCell>
        <mxCell id="R8WdpjA0Jo8XCXI6cHWc-16" value="Use" style="endArrow=open;endSize=12;dashed=1;html=1;rounded=0;exitX=1;exitY=0.5;exitDx=0;exitDy=0;entryX=0;entryY=0.5;entryDx=0;entryDy=0;" parent="R8WdpjA0Jo8XCXI6cHWc-31" source="R8WdpjA0Jo8XCXI6cHWc-1" target="R8WdpjA0Jo8XCXI6cHWc-5" edge="1">
          <mxGeometry width="160" relative="1" as="geometry">
            <mxPoint x="201" y="-30" as="sourcePoint" />
            <mxPoint x="451" y="40" as="targetPoint" />
          </mxGeometry>
        </mxCell>
        <mxCell id="kVgAkFRmE9dLtnvar5hh-0" value="" style="endArrow=open;endFill=1;endSize=12;html=1;rounded=0;exitX=1;exitY=0.5;exitDx=0;exitDy=0;entryX=0;entryY=0.5;entryDx=0;entryDy=0;" edge="1" parent="WIyWlLk6GJQsqaUBKTNV-1" source="cJhJGrbu-B-ctOWpSyJ_-9" target="R8WdpjA0Jo8XCXI6cHWc-1">
          <mxGeometry width="160" relative="1" as="geometry">
            <mxPoint x="-60" y="360" as="sourcePoint" />
            <mxPoint x="100" y="360" as="targetPoint" />
          </mxGeometry>
        </mxCell>
      </root>
    </mxGraphModel>
  </diagram>
</mxfile>
